<svg xmlns="http://www.w3.org/2000/svg" height="1169.173" width="1001.773" xml:space="preserve"><path style="fill:#69cdcd;fill-opacity:1;fill-rule:evenodd;stroke:none" d="M5193.55 8768.77c-.42-117.23 14.83-243.14 34-358.09H4117.12V2881.99c0-254.85-26.15-481.82-78.43-680.91-452.19-996.71-1732.52-866.46-2086.3-182.52 526.74-329.78 1392.82-242.22 1748.25 540.61 51.85 198.66 77.98 426.06 77.98 680.91v5528.69zm755.4-1671.97c286.22-228.71 680.9-397.36 1225.01-429.59v-317.63c-602.05 111.2-983.67 410.42-1225.01 747.22zM868.199 1024.44C-943.594 2596.64 228.152 6097.02 3013.65 5656.61v-324.18C661.227 5441.84-374.277 2635.85 868.199 1024.44" transform="matrix(.13333 0 0 -.13333 0 1169.173)"/><path style="fill:#fbf9f9;fill-opacity:1;fill-rule:evenodd;stroke:none" d="M5532.06 8410.68v-7.07c.42-128.04 37.9-1979.03 1980.38-2094.49 0-1722 .88 0 .88-1430.18-145.94-8.65-1278.58 73.19-1983.45 701.86l-2.17-2784.2c17.43-1260.73-684.38-2497.049-1998.26-2746.229-368.12-69.71-699.57-77.559-1255.98 44C-931.887 1053.18 133.23 5807.28 3351.7 5298.51c0-1534.81.88.43.88-1534.81-1329.57 195.61-1774.35-910.46-1421.05-1702.44 321.55-721 1645.39-877.37 2107.16 139.82 52.28 199.09 78.43 426.06 78.43 680.91v5528.69h1414.94" transform="matrix(.13333 0 0 -.13333 0 1169.173)"/><path style="fill:#ed1959;fill-opacity:1;fill-rule:evenodd;stroke:none" d="M5532.06 8410.68v-7.07c0-75.27 13.5-743.63 416.89-1306.81-486.17 388.98-659.55 950.94-721.4 1313.88zm1641.9-2061.1c105.85-19.49 218.69-33.43 338.48-40.46 0-1722 .88 0 .88-1430.18-145.94-8.65-1278.58 73.19-1983.45 701.86l-2.17-2784.2c17.43-1260.73-684.38-2497.049-1998.26-2746.229-368.12-69.71-699.57-77.559-1255.98 44-626.4 187.32-1088.99 520.129-1405.261 930.069C1150 779.621 1503.73 581.402 1935.46 452.012c555.8-121.102 887.38-113.25 1255.48-43.543C4504.83 657.652 5206.63 1893.96 5189.64 3154.25l1.76 2784.64c704.84-628.67 1837.49-710.96 1983.87-701.8 0 1328.18-1.31-61.92-1.31 1112.49zM3013.65 5332.43c109.73-4.8 222.61-15.63 338.05-33.92 0-1534.81.88.43.88-1534.81-1329.57 195.61-1774.35-910.46-1421.05-1702.44a772.583 772.583 0 0 1 20.86-42.7c-158.13 98.89-285.29 234.81-359.28 400.79-352.88 791.99 91.42 1898.04 1420.97 1702.45 0 1406.67-.43 236.13-.43 1210.63" transform="matrix(.13333 0 0 -.13333 0 1169.173)"/></svg>