<?xml version="1.0" standalone="no"?>
<!DOCTYPE svg PUBLIC "-//W3C//DTD SVG 20010904//EN"
 "http://www.w3.org/TR/2001/REC-SVG-20010904/DTD/svg10.dtd">
<svg version="1.0" xmlns="http://www.w3.org/2000/svg"
 width="700.000000pt" height="700.000000pt" viewBox="0 0 700.000000 700.000000"
 preserveAspectRatio="xMidYMid meet">
<metadata>
Created by potrace 1.14, written by Peter Selinger 2001-2017
</metadata>
<g transform="translate(0.000000,700.000000) scale(0.100000,-0.100000)"
fill="#000000" stroke="none">
<path d="M3362 6975 c-39 -17 -57 -36 -177 -185 -105 -131 -125 -149 -326
-305 -165 -129 -219 -183 -219 -221 0 -14 20 -87 45 -162 76 -234 81 -297 39
-442 -15 -52 -27 -105 -26 -117 2 -32 61 -133 77 -133 8 0 65 13 127 29 112
29 146 36 223 47 22 3 47 8 55 11 26 10 372 11 440 2 161 -22 178 -26 312 -59
65 -17 124 -30 130 -30 7 0 28 29 46 65 39 74 39 74 -15 235 -50 146 -48 187
12 365 26 77 47 159 48 183 0 38 -5 47 -50 91 -27 26 -102 87 -166 135 -164
124 -205 163 -304 290 -161 207 -196 233 -271 201z"/>
<path d="M721 5299 c-25 -5 -49 -13 -54 -18 -31 -31 -48 -305 -27 -424 5 -23
11 -61 14 -84 15 -114 71 -267 126 -347 86 -126 157 -161 345 -170 61 -3 121
-8 135 -11 73 -14 129 -30 162 -46 21 -11 39 -19 42 -19 3 0 34 59 70 131 107
213 206 355 358 515 l89 93 -63 47 c-229 169 -529 279 -893 329 -72 10 -259
12 -304 4z"/>
<path d="M5938 5305 c-2 -2 -37 -6 -78 -9 -213 -18 -469 -87 -669 -182 -115
-54 -260 -145 -295 -183 -18 -20 -18 -21 32 -73 188 -196 351 -437 457 -675 0
-1 39 11 85 27 99 34 127 39 275 46 61 3 128 10 150 16 136 35 249 205 300
450 22 108 25 141 29 273 6 192 -13 287 -62 301 -27 7 -218 15 -224 9z"/>
<path d="M3317 5204 c-1 -1 -29 -4 -62 -7 -33 -3 -82 -11 -110 -16 -27 -6 -61
-13 -75 -16 -243 -47 -526 -179 -730 -341 -82 -65 -200 -180 -270 -264 -30
-36 -58 -67 -61 -70 -4 -3 -45 -61 -91 -130 -171 -254 -292 -561 -323 -825 -3
-27 -8 -70 -11 -95 -9 -79 -11 -372 -3 -450 41 -380 157 -705 363 -1015 352
-528 921 -846 1521 -849 176 -1 216 3 354 33 446 98 832 360 1102 746 201 288
284 500 349 897 40 243 44 507 11 698 -6 30 -13 73 -16 95 -9 66 -54 233 -92
345 -87 256 -236 490 -458 720 -65 68 -104 103 -199 181 -133 109 -399 244
-581 293 -194 53 -296 68 -495 70 -67 0 -122 0 -123 0z"/>
<path d="M1356 2184 c-206 -136 -386 -398 -484 -704 -66 -208 -91 -360 -83
-512 3 -49 189 -91 396 -89 239 3 436 60 547 160 72 64 96 122 123 294 4 20
15 67 25 104 21 77 26 65 -66 170 -120 137 -234 314 -334 516 -29 59 -53 107
-54 107 0 -1 -32 -21 -70 -46z"/>
<path d="M5395 2203 c-3 -15 -32 -79 -64 -143 -83 -167 -189 -321 -324 -472
l-69 -77 27 -118 c14 -65 32 -146 40 -181 34 -147 151 -238 382 -297 91 -23
179 -30 358 -30 168 1 271 15 307 44 41 34 28 224 -33 449 -40 150 -131 354
-213 477 -22 33 -42 62 -45 65 -3 3 -22 25 -41 50 -67 86 -196 196 -281 241
l-37 18 -7 -26z"/>
<path d="M3074 826 c3 -39 7 -80 10 -91 16 -75 33 -129 59 -190 135 -311 431
-511 731 -492 108 7 124 10 241 43 94 27 123 41 83 42 -91 1 -214 57 -288 132
-111 112 -163 277 -164 516 l0 91 -26 -7 c-33 -9 -110 -13 -240 -13 -134 -1
-236 8 -369 33 l-43 8 6 -72z"/>
</g>
</svg>
