<svg xmlns="http://www.w3.org/2000/svg" style="background-color: #ff7d00;" viewBox="0 0 30 30" focusable="false" class="icon-nnid icon"><path fill="white" d="M7.5 12.21c0-.395.33-.714.737-.714h1.872c.169 0 .292-.077.447-.184A7.406 7.406 0 0114.786 10c4.023 0 7.286 3.165 7.286 7.068v6.486a.729.729 0 01-.74.718h-2.373a.73.73 0 01-.742-.718v-6.486c0-1.838-1.535-3.329-3.432-3.329-1.895 0-3.43 1.49-3.43 3.329v6.486a.73.73 0 01-.742.718H8.24a.729.729 0 01-.74-.718V12.211m2.73-5.13a11.682 11.682 0 014.802-1.023c3.872 0 7.287 1.87 9.354 4.721.17.236.496.285.726.113a.538.538 0 00.11-.741C22.96 7.03 19.235 5 15.031 5A12.68 12.68 0 009.81 6.114a.532.532 0 00-.265.698.514.514 0 00.684.27"></path><path fill="white" d="M22.807 11.975a.518.518 0 01-.417-.214c-1.695-2.323-4.461-3.713-7.4-3.713a9.214 9.214 0 00-3.765.792.515.515 0 01-.682-.271.527.527 0 01.267-.69A10.262 10.262 0 0114.99 7c3.266 0 6.344 1.547 8.233 4.139a.53.53 0 01-.11.733.508.508 0 01-.306.103"></path></svg>