<?xml version="1.0" encoding="UTF-8"?>
<svg width="32px" height="32px" viewBox="0 0 32 32" version="1.1" xmlns="http://www.w3.org/2000/svg" xmlns:xlink="http://www.w3.org/1999/xlink">
    <!-- Generator: Sketch 53 (72520) - https://sketchapp.com -->
    <title>icon-lovecheck</title>
    <desc>Created with Sketch.</desc>
    <defs>
        <path d="M28.001,9.43 C28.016,7.368 26.801,5.211 24.159,4.307 C21.516,3.403 19.723,4.63 18.396,6.228 L14.336,12.236 L13.851,11.851 L13.273,11.351 C11.88,10.05 9.91,8.868 8.15,9.431 C6.389,9.992 5.15,11.133 4.307,13.272 C3.464,15.412 4.518,17.253 5.588,18.395 L6.228,19.035 L15.834,28.001 L26.72,12.632 C27.626,11.352 28,10.826 28.001,9.43 Z" id="path-1"></path>
    </defs>
    <g id="icon-lovecheck" stroke="none" stroke-width="1" fill="none" fill-rule="evenodd">
        <mask id="mask-2" fill="white">
            <use xlink:href="#path-1"></use>
        </mask>
        <g></g>
        <g mask="url(#mask-2)" fill="#FFFFFF" fill-rule="nonzero" id="Path">
            <polygon points="0 0 32 0 32 32 0 32"></polygon>
        </g>
    </g>
</svg>