<svg xmlns="http://www.w3.org/2000/svg" height="486.667" width="414.213" xml:space="preserve"><defs><linearGradient id="a" spreadMethod="pad" gradientTransform="scale(-4393.44 5161.9) rotate(-45 .446 1.23)" gradientUnits="userSpaceOnUse" y2="0" x2="1" y1="0" x1="0"><stop offset="0" style="stop-opacity:1;stop-color:#f35f49"/><stop offset="1" style="stop-opacity:1;stop-color:#ed147e"/></linearGradient></defs><path style="fill:url(#a);fill-opacity:1;fill-rule:evenodd;stroke:none" d="M927.254 2177.97c696.806 240.17 815.406 865.82 726.466 1441.07 0 20.75 17.78 35.57 35.58 29.64 667.15-326.16 1417.34-1037.8 1417.34-2105.25 0-818.379-634.54-1541.88-1556.7-1541.88C731.848-35.52 38.598 597.25 1.531 1415.33c-24.61 541.74 248.481 1053.82 712.231 1334.92 17.789 11.86 41.511 0 41.511-20.76 8.895-109.71 38.547-385.47 160.122-551.52h11.859" transform="matrix(.13333 0 0 -.13333 0 486.667)"/></svg>